<defs>
<font horiz-adv-x="588" ><font-face
    font-family="aurulentsans-bold-italic"
    units-per-em="1000"
    panose-1="2 0 8 3 0 0 0 0 0 0"
    ascent="1114"
    descent="-214"
    alphabetic="0" />
<missing-glyph horiz-adv-x="500" />
<glyph unicode=" " glyph-name="space" horiz-adv-x="250" />
<glyph unicode="!" glyph-name="exclam" horiz-adv-x="302" d="M334 574Q285 395 252 227H138Q171 395 192 574L221 723H363L334 574ZM222 0H80L108 142H250L222 0Z" />
<glyph unicode="&quot;" glyph-name="quotedbl" horiz-adv-x="445" d="M532 658L486 530H386L390 658L415 786H557L532 658ZM310 658L264 530H164L168 658L193 786H335L310 658Z" />
<glyph unicode="#" glyph-name="numbersign" horiz-adv-x="630" d="M374 437H285L256 286H345L374 437ZM617 503L604 437H474L445 286H576L563 220H432L390 0H291L333 220H243L201 0H102L144 220H13L26 286H156L185 437H54L67 503H198L240 723H339L297 503H387L429
723H528L486 503H617Z" />
<glyph unicode="$" glyph-name="dollar" horiz-adv-x="580" d="M317 -94H238L256 0Q129 2 51 58L71 162Q161 98 274 94L318 320L287 332Q261 341 237 355T191 390T154 439T140 501Q140 533 154 566T198 632T278 688T396 720L415 817H494L475 722Q557 718 621 690L599
574Q501 615 456 624L419 430Q500 396 542 355T585 251Q585 213 571 175T527 103T448 42T336 6L317 -94ZM378 626Q349 620 329 608T301 581T291 556T288 536Q288 491 346 461L378 626ZM355 104Q398 118 417 147T437 208Q437 252 390 284L355 104Z" />
<glyph unicode="%" glyph-name="percent" horiz-adv-x="765" d="M577 75Q597 75 613 93T636 138T648 187T652 224Q652 277 616 277Q595 277 579 259T556 213T545 164T541 127Q541 75 577 75ZM764 212Q764 129 702 65T562 0Q502 0 466 40T429 140Q429 223 491 287T630
352Q690 352 727 312T764 212ZM291 446Q312 446 327 464T351 510T362 559T366 596Q366 648 330 648Q309 648 293 630T270 585T259 536T255 499Q255 446 291 446ZM478 583Q478 500 416 436T276 371Q216 371 180 411T143 511Q143 594 205 658T345 723Q404 723 441
683T478 583ZM807 741L230 -18H100L677 741H807Z" />
<glyph unicode="&amp;" glyph-name="ampersand" horiz-adv-x="630" d="M602 603Q602 536 555 472T439 373L493 233Q516 289 530 362H648Q621 219 538 116L585 0H453L441 27Q368 -18 286 -18Q195 -18 135 27T75 156Q75 238 128 313T263 420Q246 465 246 512Q246
608 311 674T459 741Q521 741 561 703T602 603ZM441 647Q414 647 403 608T391 523Q391 496 397 473Q430 501 447 543T464 616T441 647ZM306 327Q261 301 240 256T218 166Q218 117 245 97T313 76Q364 76 405 107L306 327Z" />
<glyph unicode="&apos;" glyph-name="quotesingle" horiz-adv-x="222" d="M307 642L261 499H155L165 642L193 786H335L307 642Z" />
<glyph unicode="(" glyph-name="parenleft" horiz-adv-x="345" d="M494 770Q450 717 421 678T353 578T291 465T251 346T234 216Q234 132 256 50T319 -129H198Q173 -69 161 -36T130 51T103 152T95 244Q95 293 108 343T141 438T200 540T276 647T373 770H494Z" />
<glyph unicode=")" glyph-name="parenright" horiz-adv-x="345" d="M374 397Q374 348 361 298T327 203T268 100T192 -6T96 -129H-25Q19 -75 48 -36T116 64T178 177T217 296T234 426Q234 569 150 770H271Q296 710 308 677T339 590T365 489T374 397Z" />
<glyph unicode="*" glyph-name="asterisk" horiz-adv-x="505" d="M524 296L457 210L442 220Q417 236 383 276T337 327Q336 317 336 306Q336 291 337 261T339 216Q339 188 335 165L331 145H231L235 165Q241 196 265 252T297 327Q280 316 231 276T150 220L131 210L98
296L117 306Q148 322 207 338T284 362Q271 368 218 384T139 417L123 427L190 513L205 503Q230 487 264 447T310 396Q311 406 311 417Q311 432 309 462T307 507Q307 536 311 558L315 578H415L411 558Q405 527 381 471T350 396Q367 407 416 447T497 503L516 513L549
427L529 417Q499 401 440 385T362 361Q376 355 429 339T507 306L524 296Z" />
<glyph unicode="+" glyph-name="plus" horiz-adv-x="575" d="M534 260H346V84H228V260H40V354H228V530H346V354H534V260Z" />
<glyph unicode="," glyph-name="comma" horiz-adv-x="302" d="M231 47L73 -214H-16L89 47L108 142H250L231 47Z" />
<glyph unicode="-" glyph-name="hyphen" horiz-adv-x="300" d="M311 260H91L109 354H329L311 260Z" />
<glyph unicode="." glyph-name="period" horiz-adv-x="302" d="M222 0H80L108 142H250L222 0Z" />
<glyph unicode="/" glyph-name="slash" horiz-adv-x="338" d="M489 770L94 -129H-26L369 770H489Z" />
<glyph unicode="0" glyph-name="zero" horiz-adv-x="630" d="M241 214Q241 150 265 109T328 68Q369 68 414 116Q436 141 452 169T479 234T496 295T511 363Q530 463 530 511Q530 575 506 616T443 657Q402 657 357 609Q335 584 319 556T292 491T275 430T261 363Q241
262 241 214ZM310 -26Q205 -26 148 43T90 236Q90 294 104 363Q138 541 233 646T461 751Q566 751 623 682T681 489Q681 390 645 274T535 76Q490 27 431 1T310 -26Z" />
<glyph unicode="1" glyph-name="one" horiz-adv-x="630" d="M574 0H115L133 94H309L411 619L225 567L243 661L462 730H576L452 94H592L574 0Z" />
<glyph unicode="2" glyph-name="two" horiz-adv-x="630" d="M60 102Q93 158 150 207T263 293T372 365T464 445T513 540Q515 550 515 560Q515 603 482 630T400 657Q301 657 184 606L204 710Q299 751 418 751Q519 751 588 703T658 574Q658 538 644 504T608 441T547
381T473 325T384 266Q253 185 199 94H568L550 0H40L60 102Z" />
<glyph unicode="3" glyph-name="three" horiz-adv-x="630" d="M661 589Q661 547 645 512T600 453T541 415T476 389Q552 375 585 333T619 237Q619 194 598 149T536 64T431 -1T287 -26Q161 -26 81 3L101 108Q213 68 305 68Q348 68 382 84T436 126T466 177T476 226Q476
268 447 289Q384 336 301 336H246L265 430H320Q367 430 410 445T486 495T518 579Q518 657 420 657Q342 657 227 621L247 726Q327 751 438 751Q543 751 602 708T661 589Z" />
<glyph unicode="4" glyph-name="four" horiz-adv-x="630" d="M503 0H360L400 207H50L69 301L501 725H644L562 301H661L642 207H543L503 0ZM211 301H419L467 552L211 301Z" />
<glyph unicode="5" glyph-name="five" horiz-adv-x="630" d="M622 256Q622 220 611 184T569 109T492 41T371 -7T201 -26Q120 -26 76 -11L96 93Q172 68 219 68Q239 68 248 68T286 71T333 79T378 95T422 121T454 161T476 218Q479 232 479 245Q479 276 466 300T428
336Q362 370 224 370Q204 370 176 369L245 725H691L673 631H345L312 462Q388 458 445 443T535 408T588 360T615 309T622 256Z" />
<glyph unicode="6" glyph-name="six" horiz-adv-x="630" d="M410 388Q364 388 321 368T249 303T219 202Q219 144 248 106T328 68Q369 68 400 84T449 123T478 176T493 229T497 272Q497 325 472 356T410 388ZM310 -26Q278 -26 250 -20T192 3T142 46T107 116T93 215Q93
275 111 363Q127 449 159 517T230 628T319 699T418 739T522 751Q609 751 660 723L639 616Q566 657 504 657Q420 657 359 595T268 428Q341 473 427 473Q531 473 585 422T640 285Q640 249 632 211T600 130T541 52T445 -4T310 -26Z" />
<glyph unicode="7" glyph-name="seven" horiz-adv-x="630" d="M595 612H159L181 725H731L709 612Q668 574 623 525T551 442T473 347Q345 187 277 0H133Q169 95 228 186T374 388Q404 425 445 468T514 537T595 612Z" />
<glyph unicode="8" glyph-name="eight" horiz-adv-x="630" d="M436 452Q478 473 505 513T532 592Q532 628 508 652T446 676Q399 676 360 639T321 557Q321 537 330 521T358 492T393 471T436 452ZM325 49Q389 49 438 100T487 211Q487 302 351 358Q291 330 254 272T216
160Q216 112 246 81T325 49ZM630 227Q630 156 584 97T465 6T310 -26Q210 -26 142 22T73 152Q73 225 128 288T286 390Q191 451 191 541Q191 600 229 648T329 724T461 751Q545 751 603 711T661 602Q661 567 646 536T606 483T556 446T503 420Q561 386 595 337T630
227Z" />
<glyph unicode="9" glyph-name="nine" horiz-adv-x="630" d="M443 657Q402 657 371 641T322 602T293 549T278 496T274 453Q274 400 299 369T361 337Q407 337 450 357T522 422T552 523Q552 581 523 619T443 657ZM131 440Q131 476 139 514T171 595T230 673T326 729T461
751Q492 751 521 745T579 722T629 679T664 609T677 510Q677 450 661 363Q646 288 621 228T566 128T499 59T429 13T360 -12T299 -23T249 -26Q162 -26 111 2L132 109Q204 68 267 68Q351 68 412 130T503 297Q430 252 344 252Q240 252 186 303T131 440Z" />
<glyph unicode=":" glyph-name="colon" horiz-adv-x="302" d="M297 388H155L183 530H325L297 388ZM222 0H80L108 142H250L222 0Z" />
<glyph unicode=";" glyph-name="semicolon" horiz-adv-x="302" d="M297 388H155L183 530H325L297 388ZM231 47L73 -214H-16L89 47L108 142H250L231 47Z" />
<glyph unicode="&lt;" glyph-name="less" horiz-adv-x="547" d="M508 77L40 289V325L508 537V429L249 307L508 185V77Z" />
<glyph unicode="=" glyph-name="equal" horiz-adv-x="575" d="M534 166H40V260H534V166ZM534 354H40V448H534V354Z" />
<glyph unicode="&gt;" glyph-name="greater" horiz-adv-x="547" d="M508 325V289L40 77V185L299 307L40 429V537L508 325Z" />
<glyph unicode="?" glyph-name="question" horiz-adv-x="630" d="M345 0H203L231 142H373L345 0ZM702 588Q702 546 682 513T627 457T558 415T486 373T428 326Q402 294 392 244L389 227H247L250 244Q259 287 280 320T329 375T388 413T449 444T503 473T541 512T556
566Q556 608 515 627T410 647Q301 647 173 594L193 696Q303 741 427 741Q501 741 561 726T662 675T702 588Z" />
<glyph unicode="@" glyph-name="at" horiz-adv-x="877" d="M611 715Q672 715 720 705T805 674T862 618T882 533Q882 495 866 414L800 71H682L695 138Q612 71 539 71Q480 71 440 109T399 226Q399 257 406 292Q416 347 440 390T494 460T560 502T628 525T692 532Q732
532 763 521Q763 533 761 544T749 573T723 604T672 627T592 637Q450 637 356 552T228 297Q217 240 217 191Q217 75 279 16T457 -43Q496 -43 560 -31L544 -113Q501 -121 453 -121Q285 -121 191 -48T97 178Q97 233 110 297Q131 407 177 488T290 619T437 691T611 715ZM758
463Q739 470 718 470Q666 470 618 439Q574 411 554 361T534 260Q534 211 558 188T624 165Q670 165 704 186L758 463Z" />
<glyph unicode="A" glyph-name="A" horiz-adv-x="739" d="M730 0H580L541 190H245L135 0H10L430 725H580L730 0ZM520 289L463 567L302 289H520Z" />
<glyph unicode="B" glyph-name="B" horiz-adv-x="678" d="M709 569Q709 530 692 498T647 444T588 409T523 387Q592 370 635 329T679 227Q679 210 675 192T662 148T630 97T574 52Q544 33 510 22T434 7T363 1T283 0H80L221 725H415Q461 725 485 724T546 719T610
705T658 676Q709 634 709 569ZM296 338L249 99H343Q363 99 370 99T399 100T432 105T462 116T491 133T512 159T526 196Q528 208 528 219Q528 263 498 296Q478 316 449 325T397 336T335 338H296ZM315 437H365Q397 437 414 438T458 445T504 466Q557 502 557 553Q557
584 536 603Q525 614 507 619T474 625T435 626H352L315 437Z" />
<glyph unicode="C" glyph-name="C" horiz-adv-x="700" d="M93 270Q93 331 109 395T163 523T253 638T388 719T568 751Q686 751 798 710L776 598Q632 652 549 652Q503 652 464 639T398 608T349 561T314 508T291 451T277 402T268 362Q256 297 256 251Q256 200 271
164T314 108T369 81T428 73Q467 73 516 86T600 114T690 153L666 29Q542 -26 413 -26Q332 -26 270 -4T170 59T113 153T93 270Z" />
<glyph unicode="D" glyph-name="D" horiz-adv-x="759" d="M540 174Q585 218 616 285T647 432Q647 502 620 553Q609 574 593 588T562 610T523 621T485 625T444 626H352L249 99H310Q348 99 369 100T423 108T484 131T540 174ZM798 435Q798 340 753 254T633 106Q595
75 553 54T478 23T396 7T319 1T238 0H80L221 725H410Q446 725 464 725T515 723T567 717T614 706T661 687T702 658T739 619Q798 541 798 435Z" />
<glyph unicode="E" glyph-name="E" horiz-adv-x="659" d="M632 0H80L221 725H761L742 626H352L315 437H626L607 338H296L249 99H651L632 0Z" />
<glyph unicode="F" glyph-name="F" horiz-adv-x="640" d="M722 626H352L315 437H609L590 338H296L230 0H80L221 725H741L722 626Z" />
<glyph unicode="G" glyph-name="G" horiz-adv-x="731" d="M257 258Q257 205 273 167T319 110T379 82T446 73Q492 73 559 89L592 259H516L536 358H762L697 27Q539 -26 424 -26Q264 -26 179 57T94 275Q94 317 102 362Q112 412 132 462T192 565T283 659T413 725T586
751Q707 751 830 709L808 599Q759 616 727 625T649 643T566 652Q517 652 476 640T406 609T354 563T317 510T293 454T277 404T268 362Q257 302 257 258Z" />
<glyph unicode="H" glyph-name="H" horiz-adv-x="780" d="M700 0H550L611 313H291L230 0H80L221 725H371L310 412H630L691 725H841L700 0Z" />
<glyph unicode="I" glyph-name="I" horiz-adv-x="310" d="M230 0H80L221 725H371L230 0Z" />
<glyph unicode="J" glyph-name="J" horiz-adv-x="503" d="M478 276Q472 247 469 230T457 185T441 138T419 96T390 56T351 23T300 -3T238 -19T160 -26Q75 -26 9 -3L31 107Q131 73 173 73Q227 73 265 109Q282 125 294 150T311 195T322 249L415 725H565L478 276Z" />
<glyph unicode="K" glyph-name="K" horiz-adv-x="678" d="M706 73L677 -26Q602 -18 543 18T448 114L336 309L280 255L230 0H80L221 725H371L313 429L628 725H780L431 397L564 165Q611 84 706 73Z" />
<glyph unicode="L" glyph-name="L" horiz-adv-x="606" d="M596 0H80L221 725H371L249 99H615L596 0Z" />
<glyph unicode="M" glyph-name="M" horiz-adv-x="916" d="M836 0H686L798 576L537 51H387L317 576L205 0H80L221 725H447L511 249L748 725H977L836 0Z" />
<glyph unicode="N" glyph-name="N" horiz-adv-x="780" d="M205 0H80L221 725H371L612 193L716 725H841L700 0H550L308 532L205 0Z" />
<glyph unicode="O" glyph-name="O" horiz-adv-x="855" d="M256 255Q256 203 272 166T317 109T376 82T442 73Q538 73 608 127Q659 167 686 226T729 363Q741 425 741 469Q741 522 725 559T680 616T621 643T555 652Q459 652 389 598Q338 558 311 499T269 363Q256
300 256 255ZM94 273Q94 341 113 408T171 537T267 646T402 722T574 751Q656 751 720 728T823 665T883 570T903 452Q903 386 885 320T827 191T732 81T597 3T423 -26Q261 -26 178 56T94 273Z" />
<glyph unicode="P" glyph-name="P" horiz-adv-x="699" d="M772 553Q772 495 740 437T651 340Q618 317 583 304T505 285T433 278T353 277H284L230 0H80L221 725H440Q493 725 521 724T592 719T665 702T719 670Q772 625 772 553ZM303 376H411Q445 376 463 377T509
386T558 412Q584 433 599 463T617 509T620 536Q620 574 595 596Q580 610 556 617T513 625T459 626H352L303 376Z" />
<glyph unicode="Q" glyph-name="Q" horiz-adv-x="855" d="M621 138Q656 169 681 217T718 314T735 402T741 469Q741 522 725 559T680 616T621 643T555 652Q459 652 389 598Q338 558 311 499T269 363Q256 300 256 255Q256 203 272 166T317 109T376 82T442 73Q482
73 519 83Q485 147 405 169L450 266Q508 249 554 214T621 138ZM94 273Q94 341 113 408T171 537T267 646T402 722T574 751Q656 751 720 728T823 665T883 570T903 452Q903 324 836 207T656 29Q700 -63 804 -63L785 -162Q699 -162 634 -119T548 -11Q488 -26 423 -26Q261
-26 178 56T94 273Z" />
<glyph unicode="R" glyph-name="R" horiz-adv-x="697" d="M716 552Q716 514 703 476T665 400T594 333T489 291L591 135Q632 71 707 60L673 -39Q611 -30 560 0T476 79L347 277Q330 277 296 277H284L230 0H80L221 725H407Q457 725 484 724T550 718T618 701T669 668Q716
624 716 552ZM505 410Q534 432 549 467T565 539Q565 563 556 580T535 606T502 619T469 625T437 626Q435 626 432 626T427 626H352L303 376H354Q389 376 408 377T456 386T505 410Z" />
<glyph unicode="S" glyph-name="S" horiz-adv-x="669" d="M458 652Q412 652 379 642T329 614T305 579T297 542Q297 511 325 494T435 449L499 427Q590 395 631 351T672 246Q672 227 668 205Q646 93 541 34T279 -26Q126 -26 45 26L71 157Q200 73 337 73Q388 73 424
84T479 115T506 153T514 192Q514 228 482 253T382 302L319 324Q218 359 178 395T137 482Q137 499 141 520Q156 596 209 649T334 727T488 751Q595 751 691 711L669 597Q624 616 601 624T536 642T458 652Z" />
<glyph unicode="T" glyph-name="T" horiz-adv-x="659" d="M772 626H527L405 0H255L377 626H132L151 725H791L772 626Z" />
<glyph unicode="U" glyph-name="U" horiz-adv-x="780" d="M270 182Q270 151 282 129T315 95T358 78T404 73Q479 73 530 112Q553 130 568 156T588 201T600 255L691 725H841L754 279Q747 243 743 225T729 175T707 124T675 80T627 38Q533 -26 385 -26Q345 -26 309
-21T237 -3T176 30T135 84T119 161Q119 199 134 279L221 725H371L280 255Q270 205 270 182Z" />
<glyph unicode="V" glyph-name="V" horiz-adv-x="728" d="M413 161L734 725H859L445 0H295L151 725H301L413 161Z" />
<glyph unicode="W" glyph-name="W" horiz-adv-x="1053" d="M1185 725L870 0H676L623 502L394 0H197L151 725H301L338 149L599 725H749L810 148L1060 725H1185Z" />
<glyph unicode="X" glyph-name="X" horiz-adv-x="728" d="M727 0H559L409 265L146 0H-1L355 360L148 725H316L462 467L717 725H865L516 373L727 0Z" />
<glyph unicode="Y" glyph-name="Y" horiz-adv-x="717" d="M440 0H290L346 290L151 725H301L452 389L724 725H849L496 290L440 0Z" />
<glyph unicode="Z" glyph-name="Z" horiz-adv-x="681" d="M642 0H40L65 127L615 626H180L199 725H783L758 598L208 99H661L642 0Z" />
<glyph unicode="[" glyph-name="bracketleft" horiz-adv-x="377" d="M343 -129H15L190 770H518L499 676H314L175 -35H361L343 -129Z" />
<glyph unicode="\" glyph-name="backslash" horiz-adv-x="338" d="M314 -129H194L149 770H269L314 -129Z" />
<glyph unicode="]" glyph-name="bracketright" horiz-adv-x="377" d="M313 -129H-15L3 -35H188L327 676H141L160 770H488L313 -129Z" />
<glyph unicode="^" glyph-name="asciicircum" horiz-adv-x="515" d="M496 362H369L257 593L145 362H18L194 723H320L496 362Z" />
<glyph unicode="_" glyph-name="underscore" horiz-adv-x="500" d="M482 -94H-18L0 0H500L482 -94Z" />
<glyph unicode="`" glyph-name="grave" horiz-adv-x="293" d="M235 550H146L40 723V786H182V723L235 550Z" />
<glyph unicode="a" glyph-name="a" horiz-adv-x="580" d="M400 548Q456 548 495 539T554 512T583 473T592 423Q592 394 580 332L515 0H372L382 53Q286 -18 201 -18Q139 -18 102 15T65 104Q65 123 69 142T84 184T118 230T173 270Q261 316 434 319L441 353Q446 383
446 398Q446 425 429 439T365 454Q289 454 174 405L194 509Q282 548 400 548ZM395 120L419 243Q319 242 269 215Q210 180 210 127Q210 103 226 90T275 76Q329 76 395 120Z" />
<glyph unicode="b" glyph-name="b" horiz-adv-x="601" d="M635 389Q635 317 607 233T524 86Q477 35 414 9T256 -18Q147 -18 79 19L225 770H367L304 449Q387 548 494 548Q520 548 543 541T588 518T622 468T635 389ZM283 76Q325 76 357 92T410 140T444 206T466 290Q477
344 477 378Q477 419 463 436T419 454Q384 454 348 431T289 370L233 82Q259 76 283 76Z" />
<glyph unicode="c" glyph-name="c" horiz-adv-x="557" d="M86 195Q86 235 95 278T131 371T196 459T301 522T451 548Q534 548 618 527L599 428Q484 454 433 454Q387 454 351 438T293 394T257 335T236 265Q229 232 229 204Q229 76 357 76Q413 76 537 108L517 6Q424
-18 338 -18Q212 -18 149 39T86 195Z" />
<glyph unicode="d" glyph-name="d" horiz-adv-x="601" d="M74 163Q74 193 79 226T95 297T125 370T171 438T235 495T321 533T432 548Q466 548 491 546L535 770H677L527 0H385L399 72Q323 -18 228 -18Q198 -18 172 -9T124 21T88 78T74 163ZM422 454Q381 454 350
439T297 396T263 334T242 256Q233 210 233 175Q233 76 302 76Q335 76 366 99T416 158L472 449Q447 454 422 454Z" />
<glyph unicode="e" glyph-name="e" horiz-adv-x="584" d="M439 553Q531 553 582 515T633 420Q633 365 587 317T457 243Q380 220 243 220Q236 220 229 220Q228 209 228 199Q228 76 355 76Q429 76 559 119L538 12Q449 -18 344 -18Q271 -18 220 -1T140 46T99 111T86
191Q86 226 94 265Q120 404 215 478T439 553ZM261 314Q490 314 490 408Q490 429 474 444T421 459Q403 459 383 454T337 436T287 391T248 314Q255 314 261 314Z" />
<glyph unicode="f" glyph-name="f" horiz-adv-x="422" d="M232 525Q243 576 253 611T283 682T328 739T394 774T486 788Q534 788 582 774L564 679Q515 694 488 694Q468 694 453 689T427 672T409 648T396 614T386 578T377 535Q376 529 375 525H517L501 441H359L293
102Q286 66 282 45T269 -8T253 -57T233 -100T207 -138T174 -168T132 -192T80 -205T15 -211Q-22 -211 -67 -197L-49 -102Q1 -117 33 -117Q54 -117 69 -111T94 -95T112 -65T124 -24T136 31L216 441H122L138 525H232Z" />
<glyph unicode="g" glyph-name="g" horiz-adv-x="568" d="M252 293Q252 231 322 231Q346 231 364 239T393 256T411 283T422 312T428 342Q435 375 435 392Q435 454 365 454Q341 454 323 446T294 428T276 401T265 372T258 342Q252 310 252 293ZM98 305Q98 344 116
385T167 464T257 524T384 548Q450 548 497 526Q584 595 670 595L651 501Q597 501 553 483Q589 439 589 379Q589 335 569 292T513 214T422 158T303 136Q279 136 256 139Q252 132 252 125Q252 99 312 89L447 61Q561 41 561 -32Q561 -54 555 -73T529 -116T477 -155T388
-182T255 -193Q253 -193 248 -193T240 -193Q91 -193 8 -174L29 -66Q178 -99 327 -99Q366 -99 389 -93T414 -66Q414 -61 414 -58T411 -51T408 -47T403 -44T398 -42T391 -40T384 -38L249 -11Q223 -6 206 -1T169 15T140 42T130 82Q130 130 172 169Q137 191 118 226T98
305Z" />
<glyph unicode="h" glyph-name="h" horiz-adv-x="623" d="M475 351Q482 385 482 401Q482 454 424 454Q357 454 294 397L217 0H75L225 770H367L308 470Q400 548 499 548Q570 548 598 516T626 430Q626 397 613 328L549 0H407L475 351Z" />
<glyph unicode="i" glyph-name="i" horiz-adv-x="292" d="M336 614H194L216 725H358L336 614ZM217 0H75L178 530H320L217 0Z" />
<glyph unicode="j" glyph-name="j" horiz-adv-x="292" d="M336 614H194L216 725H358L336 614ZM-24 -117Q-2 -117 14 -110T40 -93T57 -64T68 -31T77 9L178 530H320L225 40Q219 11 216 -5T206 -46T193 -86T176 -121T153 -152T124 -176T85 -195T37 -206T-22 -211Q-76
-211 -113 -197L-94 -97Q-43 -117 -24 -117Z" />
<glyph unicode="k" glyph-name="k" horiz-adv-x="544" d="M573 76L546 -18Q477 -11 424 23T342 115L296 210L248 159L217 0H75L225 770H367L283 341L465 530H603L386 303L455 159Q472 124 502 102T573 76Z" />
<glyph unicode="l" glyph-name="l" horiz-adv-x="292" d="M217 0H75L225 770H367L217 0Z" />
<glyph unicode="m" glyph-name="m" horiz-adv-x="925" d="M795 548Q820 548 842 543T884 524T916 487T928 427Q928 396 914 326L851 0H709L777 350Q783 382 783 399Q783 454 723 454Q665 454 611 403Q609 379 598 326L535 0H393L461 350Q467 382 467 399Q467 454
407 454Q350 454 296 405L217 0H75L178 530H320L311 482Q390 548 479 548Q526 548 561 528T608 464Q695 548 795 548Z" />
<glyph unicode="n" glyph-name="n" horiz-adv-x="623" d="M475 351Q482 385 482 401Q482 454 424 454Q357 454 294 397L217 0H75L178 530H320L308 470Q400 548 499 548Q570 548 598 516T626 430Q626 397 613 328L549 0H407L475 351Z" />
<glyph unicode="o" glyph-name="o" horiz-adv-x="625" d="M233 182Q233 126 261 101T328 76Q353 76 375 84T412 105T439 137T459 172T472 208T480 238T485 260Q485 264 486 265Q496 319 496 348Q496 404 468 429T401 454Q376 454 354 446T317 425T290 393T270
358T257 322T249 292T244 270Q244 266 244 265Q233 211 233 182ZM80 199Q80 262 103 323T168 435T275 517T420 548Q533 548 591 488T649 331Q649 268 626 207T561 95T454 13T310 -18Q196 -18 138 42T80 199Z" />
<glyph unicode="p" glyph-name="p" horiz-adv-x="601" d="M635 389Q635 317 607 233T524 86Q477 35 414 9T257 -18Q234 -18 214 -16L179 -193H37L178 530H320L304 449Q387 548 494 548Q520 548 543 541T588 518T622 468T635 389ZM283 76Q325 76 357 92T410 140T444
206T466 290Q477 344 477 378Q477 419 463 436T419 454Q384 454 348 431T289 370L233 82Q259 76 283 76Z" />
<glyph unicode="q" glyph-name="q" horiz-adv-x="601" d="M74 163Q74 193 79 226T95 297T125 370T171 438T235 495T321 533T432 548Q560 548 626 511L489 -193H347L399 72Q323 -18 228 -18Q198 -18 172 -9T124 21T88 78T74 163ZM422 454Q381 454 350 439T297 396T263
334T242 256Q233 210 233 175Q233 76 302 76Q335 76 366 99T416 158L472 449Q447 454 422 454Z" />
<glyph unicode="r" glyph-name="r" horiz-adv-x="455" d="M521 428Q491 435 466 435Q409 435 357 402T279 317L217 0H75L178 530H320L300 427Q337 483 388 515T499 548Q530 548 544 545L521 428Z" />
<glyph unicode="s" glyph-name="s" horiz-adv-x="539" d="M534 200Q534 104 451 43T244 -18Q112 -18 61 8L82 116Q163 76 284 76Q334 76 359 99T384 149Q384 163 375 174T356 189T330 200L221 237Q180 252 156 283T131 356Q131 412 170 456T271 524T405 548Q472
548 548 528L528 427Q425 454 380 454Q326 454 303 437T279 399Q279 388 288 379T306 366T332 356L441 318Q534 285 534 200Z" />
<glyph unicode="t" glyph-name="t" horiz-adv-x="428" d="M306 172Q300 138 300 123Q300 100 312 88T357 76Q377 76 427 83L409 -11Q348 -18 306 -18Q220 -18 187 8T153 87Q153 118 167 190L216 441H122L138 525H232L256 650H399L375 525H513L497 441H359L306 172Z" />
<glyph unicode="u" glyph-name="u" horiz-adv-x="623" d="M232 -18Q206 -18 185 -13T144 6T113 43T101 103Q101 135 115 204L178 530H320L252 180Q245 146 245 130Q245 76 304 76Q370 76 433 133L510 530H652L549 0H407L419 60Q328 -18 232 -18Z" />
<glyph unicode="v" glyph-name="v" horiz-adv-x="561" d="M332 133L479 344Q504 381 504 425Q504 469 479 510L580 550Q623 478 623 423Q623 380 598 344L358 0H216L113 530H255L332 133Z" />
<glyph unicode="w" glyph-name="w" horiz-adv-x="784" d="M839 344L633 0H460L419 142L334 0H167L113 530H241L283 114L422 344Q442 378 442 416Q442 461 416 510L532 550Q564 487 564 432Q564 385 540 344L505 286L565 83L720 344Q741 379 741 420Q741 463 717
511L834 549Q863 488 863 434Q863 386 839 344Z" />
<glyph unicode="x" glyph-name="x" horiz-adv-x="561" d="M552 0H410Q410 56 378 98L312 185L138 0H0L250 266L160 384Q117 441 117 522Q117 526 117 530H259Q258 476 291 435L354 351L523 530H661L416 270L509 148Q552 91 552 9Q552 5 552 0Z" />
<glyph unicode="y" glyph-name="y" horiz-adv-x="561" d="M655 530L478 10Q471 -10 468 -20T455 -50T437 -81T414 -109T383 -137T342 -159T290 -177T225 -188T144 -193Q88 -193 43 -184L62 -86Q127 -99 171 -99Q207 -99 235 -92T278 -77T305 -53T320 -29T330 -3L337
15Q304 -9 267 -9Q215 -9 178 33Q161 52 151 81T139 129T134 188L113 530H255L279 184Q284 67 301 67Q340 67 370 112L512 530H655Z" />
<glyph unicode="z" glyph-name="z" horiz-adv-x="557" d="M568 1Q493 -47 395 -47Q343 -47 261 -24T137 0H42L64 111L448 436H141L159 530H619L597 419L207 89Q227 85 290 66T389 47Q448 47 518 93L568 1Z" />
<glyph unicode="{" glyph-name="braceleft" horiz-adv-x="406" d="M234 321Q291 279 291 246Q291 243 291 240L252 39Q250 33 250 27Q250 -2 278 -18T347 -35H389L371 -129H329Q246 -129 189 -91T131 12Q131 25 134 39L170 225Q129 274 63 274L82 368Q149 368
207 417L243 602Q258 678 335 724T504 770H546L527 676H485Q441 676 405 657T361 602L322 401Q319 387 298 367T262 338T234 321Z" />
<glyph unicode="|" glyph-name="bar" horiz-adv-x="278" d="M173 -129H55L230 770H348L173 -129Z" />
<glyph unicode="}" glyph-name="braceright" horiz-adv-x="406" d="M296 321Q239 363 239 396Q239 398 240 401L279 602Q280 608 280 614Q280 643 252 659T183 676H141L160 770H202Q285 770 342 732T400 629Q400 616 397 602L361 417Q401 368 468 368L449 274Q384
274 324 225L288 39Q273 -37 196 -83T27 -129H-15L3 -35H45Q90 -35 126 -16T170 39L209 240Q215 274 296 321Z" />
<glyph unicode="~" glyph-name="asciitilde" horiz-adv-x="650" d="M221 419Q253 419 281 406T330 373T367 335T400 303T432 289Q445 289 453 298T464 328T467 362T468 401H610Q610 316 557 256T429 195Q397 195 369 208T320 241T283 279T250 311T218 325Q205
325 197 316T186 286T183 252T182 213H40Q40 298 93 358T221 419Z" />
<glyph unicode="&#xa0;" glyph-name="nbspace" horiz-adv-x="250" />
<glyph unicode="&#xa8;" glyph-name="dieresis" horiz-adv-x="710" d="M672 614H529L551 725H694L672 614ZM419 614H276L298 725H441L419 614Z" />
<glyph unicode="&#xaf;" glyph-name="overscore" horiz-adv-x="710" d="M688 614H260L279 708H707L688 614Z" />
<glyph unicode="4;" glyph-name="acute" horiz-adv-x="365" d="M474 772L273 614H187L332 772H474Z" />
<glyph unicode="0;" glyph-name="Agrave" horiz-adv-x="739" d="M593 809H507L368 967H510L593 809ZM730 0H580L541 190H245L135 0H10L430 725H580L730 0ZM520 289L463 567L302 289H520Z" />
<glyph unicode="1;" glyph-name="Aacute" horiz-adv-x="739" d="M709 967L508 809H422L567 967H709ZM730 0H580L541 190H245L135 0H10L430 725H580L730 0ZM520 289L463 567L302 289H520Z" />
<glyph unicode="2;" glyph-name="Acircumflex" horiz-adv-x="739" d="M719 809H605L523 883L411 809H297L462 938H604L719 809ZM730 0H580L541 190H245L135 0H10L430 725H580L730 0ZM520 289L463 567L302 289H520Z" />
<glyph unicode="4;" glyph-name="Adieresis" horiz-adv-x="739" d="M706 809H563L585 920H728L706 809ZM453 809H310L332 920H475L453 809ZM730 0H580L541 190H245L135 0H10L430 725H580L730 0ZM520 289L463 567L302 289H520Z" />
<glyph unicode="5;" glyph-name="Aring" horiz-adv-x="739" d="M521 874Q560 874 592 904T624 975Q624 1005 605 1024T554 1044Q515 1044 483 1014T451 943Q451 913 470 894T521 874ZM711 987Q711 913 648 858T507 803Q445 803 405 839T364 931Q364 1005 426
1060T568 1115Q630 1115 670 1079T711 987ZM730 0H580L541 190H245L135 0H10L430 725H580L730 0ZM520 289L463 567L302 289H520Z" />
<glyph unicode="8;" glyph-name="Egrave" horiz-adv-x="659" d="M593 809H507L368 967H510L593 809ZM632 0H80L221 725H761L742 626H352L315 437H626L607 338H296L249 99H651L632 0Z" />
<glyph unicode="9;" glyph-name="Eacute" horiz-adv-x="659" d="M708 967L507 809H421L566 967H708ZM632 0H80L221 725H761L742 626H352L315 437H626L607 338H296L249 99H651L632 0Z" />
<glyph unicode="a;" glyph-name="Ecircumflex" horiz-adv-x="659" d="M718 809H604L522 883L410 809H296L461 938H603L718 809ZM632 0H80L221 725H761L742 626H352L315 437H626L607 338H296L249 99H651L632 0Z" />
<glyph unicode="b;" glyph-name="Edieresis" horiz-adv-x="659" d="M705 809H562L584 920H727L705 809ZM452 809H309L331 920H474L452 809ZM632 0H80L221 725H761L742 626H352L315 437H626L607 338H296L249 99H651L632 0Z" />
<glyph unicode="c;" glyph-name="Igrave" horiz-adv-x="310" d="M398 809H312L173 967H315L398 809ZM230 0H80L221 725H371L230 0Z" />
<glyph unicode="d;" glyph-name="Iacute" horiz-adv-x="310" d="M513 967L312 809H226L371 967H513ZM230 0H80L221 725H371L230 0Z" />
<glyph unicode="e;" glyph-name="Icircumflex" horiz-adv-x="310" d="M523 809H409L327 883L215 809H101L266 938H408L523 809ZM230 0H80L221 725H371L230 0Z" />
<glyph unicode="f;" glyph-name="Idieresis" horiz-adv-x="310" d="M510 809H367L389 920H532L510 809ZM257 809H114L136 920H279L257 809ZM230 0H80L221 725H371L230 0Z" />
<glyph unicode="&#xd0;" glyph-name="Eth" horiz-adv-x="759" d="M540 174Q585 218 616 285T647 432Q647 502 620 553Q609 574 593 588T562 610T523 621T485 625T444 626H352L310 412H463L444 313H291L249 99H310Q348 99 369 100T423 108T484 131T540 174ZM798
435Q798 340 753 254T633 106Q595 75 553 54T478 23T396 7T319 1T238 0H80L141 313H69L88 412H160L221 725H410Q446 725 464 725T515 723T567 717T614 706T661 687T702 658T739 619Q798 541 798 435Z" />
<glyph unicode="&#xd2;" glyph-name="Ograve" horiz-adv-x="855" d="M670 809H584L445 967H587L670 809ZM256 255Q256 203 272 166T317 109T376 82T442 73Q538 73 608 127Q659 167 686 226T729 363Q741 425 741 469Q741 522 725 559T680 616T621 643T555 652Q459
652 389 598Q338 558 311 499T269 363Q256 300 256 255ZM94 273Q94 341 113 408T171 537T267 646T402 722T574 751Q656 751 720 728T823 665T883 570T903 452Q903 386 885 320T827 191T732 81T597 3T423 -26Q261 -26 178 56T94 273Z" />
<glyph unicode="&#xd3;" glyph-name="Oacute" horiz-adv-x="855" d="M786 967L585 809H499L644 967H786ZM256 255Q256 203 272 166T317 109T376 82T442 73Q538 73 608 127Q659 167 686 226T729 363Q741 425 741 469Q741 522 725 559T680 616T621 643T555 652Q459
652 389 598Q338 558 311 499T269 363Q256 300 256 255ZM94 273Q94 341 113 408T171 537T267 646T402 722T574 751Q656 751 720 728T823 665T883 570T903 452Q903 386 885 320T827 191T732 81T597 3T423 -26Q261 -26 178 56T94 273Z" />
<glyph unicode="&#xd4;" glyph-name="Ocircumflex" horiz-adv-x="855" d="M796 809H682L600 883L488 809H374L539 938H681L796 809ZM256 255Q256 203 272 166T317 109T376 82T442 73Q538 73 608 127Q659 167 686 226T729 363Q741 425 741 469Q741 522 725 559T680
616T621 643T555 652Q459 652 389 598Q338 558 311 499T269 363Q256 300 256 255ZM94 273Q94 341 113 408T171 537T267 646T402 722T574 751Q656 751 720 728T823 665T883 570T903 452Q903 386 885 320T827 191T732 81T597 3T423 -26Q261 -26 178 56T94 273Z" />
<glyph unicode="&#xd6;" glyph-name="Odieresis" horiz-adv-x="855" d="M783 809H640L662 920H805L783 809ZM530 809H387L409 920H552L530 809ZM256 255Q256 203 272 166T317 109T376 82T442 73Q538 73 608 127Q659 167 686 226T729 363Q741 425 741 469Q741 522
725 559T680 616T621 643T555 652Q459 652 389 598Q338 558 311 499T269 363Q256 300 256 255ZM94 273Q94 341 113 408T171 537T267 646T402 722T574 751Q656 751 720 728T823 665T883 570T903 452Q903 386 885 320T827 191T732 81T597 3T423 -26Q261 -26 178 56T94
273Z" />
<glyph unicode="&#xd9;" glyph-name="Ugrave" horiz-adv-x="780" d="M633 809H547L408 967H550L633 809ZM270 182Q270 151 282 129T315 95T358 78T404 73Q479 73 530 112Q553 130 568 156T588 201T600 255L691 725H841L754 279Q747 243 743 225T729 175T707 124T675
80T627 38Q533 -26 385 -26Q345 -26 309 -21T237 -3T176 30T135 84T119 161Q119 199 134 279L221 725H371L280 255Q270 205 270 182Z" />
<glyph unicode="&#xda;" glyph-name="Uacute" horiz-adv-x="780" d="M748 967L547 809H461L606 967H748ZM270 182Q270 151 282 129T315 95T358 78T404 73Q479 73 530 112Q553 130 568 156T588 201T600 255L691 725H841L754 279Q747 243 743 225T729 175T707 124T675
80T627 38Q533 -26 385 -26Q345 -26 309 -21T237 -3T176 30T135 84T119 161Q119 199 134 279L221 725H371L280 255Q270 205 270 182Z" />
<glyph unicode="&#xdb;" glyph-name="Ucircumflex" horiz-adv-x="780" d="M758 809H644L562 883L450 809H336L501 938H643L758 809ZM270 182Q270 151 282 129T315 95T358 78T404 73Q479 73 530 112Q553 130 568 156T588 201T600 255L691 725H841L754 279Q747 243
743 225T729 175T707 124T675 80T627 38Q533 -26 385 -26Q345 -26 309 -21T237 -3T176 30T135 84T119 161Q119 199 134 279L221 725H371L280 255Q270 205 270 182Z" />
<glyph unicode="&#xdc;" glyph-name="Udieresis" horiz-adv-x="780" d="M745 809H602L624 920H767L745 809ZM492 809H349L371 920H514L492 809ZM270 182Q270 151 282 129T315 95T358 78T404 73Q479 73 530 112Q553 130 568 156T588 201T600 255L691 725H841L754
279Q747 243 743 225T729 175T707 124T675 80T627 38Q533 -26 385 -26Q345 -26 309 -21T237 -3T176 30T135 84T119 161Q119 199 134 279L221 725H371L280 255Q270 205 270 182Z" />
<glyph unicode="&#xdd;" glyph-name="Yacute" horiz-adv-x="717" d="M717 967L516 809H430L575 967H717ZM440 0H290L346 290L151 725H301L452 389L724 725H849L496 290L440 0Z" />
<glyph unicode="&#xde;" glyph-name="Thorn" horiz-adv-x="699" d="M230 0H80L221 725H371L346 595H415Q468 595 496 594T567 589T640 572T694 540Q746 495 746 423Q746 365 714 307T626 209Q593 187 558 174T479 155T408 148T328 147H259L230 0ZM422 246Q466
246 500 262T554 303T584 354T594 405Q594 445 565 470T470 496H326L278 246H422Z" />
<glyph unicode="&#xdf;" glyph-name="germandbls" horiz-adv-x="687" d="M336 340Q336 376 355 409T403 469T458 521T505 575T525 632Q525 660 506 677T454 694Q409 694 376 667Q360 655 350 637T336 605T327 566L217 0H75L181 543Q186 572 189 587T201 628T218
670T244 705T281 738Q357 788 464 788Q554 788 611 750T669 647Q669 609 650 572T604 506T551 454T505 414T486 388Q486 376 496 366T515 349T543 334L593 308Q635 287 658 261T681 194Q681 180 678 164Q662 83 588 33T408 -18Q287 -18 247 5L269 119Q344 76 445
76Q484 76 506 94T529 134Q529 148 516 161T491 182T457 201L407 226Q374 243 355 273T336 340Z" />
<glyph unicode="&#xe0;" glyph-name="agrave" horiz-adv-x="580" d="M491 614H405L266 772H408L491 614ZM400 548Q456 548 495 539T554 512T583 473T592 423Q592 394 580 332L515 0H372L382 53Q286 -18 201 -18Q139 -18 102 15T65 104Q65 123 69 142T84 184T118
230T173 270Q261 316 434 319L441 353Q446 383 446 398Q446 425 429 439T365 454Q289 454 174 405L194 509Q282 548 400 548ZM395 120L419 243Q319 242 269 215Q210 180 210 127Q210 103 226 90T275 76Q329 76 395 120Z" />
<glyph unicode="&#xe1;" glyph-name="aacute" horiz-adv-x="580" d="M607 772L406 614H320L465 772H607ZM400 548Q456 548 495 539T554 512T583 473T592 423Q592 394 580 332L515 0H372L382 53Q286 -18 201 -18Q139 -18 102 15T65 104Q65 123 69 142T84 184T118
230T173 270Q261 316 434 319L441 353Q446 383 446 398Q446 425 429 439T365 454Q289 454 174 405L194 509Q282 548 400 548ZM395 120L419 243Q319 242 269 215Q210 180 210 127Q210 103 226 90T275 76Q329 76 395 120Z" />
<glyph unicode="&#xe2;" glyph-name="acircumflex" horiz-adv-x="580" d="M617 614H503L421 688L309 614H195L360 743H502L617 614ZM400 548Q456 548 495 539T554 512T583 473T592 423Q592 394 580 332L515 0H372L382 53Q286 -18 201 -18Q139 -18 102 15T65 104Q65
123 69 142T84 184T118 230T173 270Q261 316 434 319L441 353Q446 383 446 398Q446 425 429 439T365 454Q289 454 174 405L194 509Q282 548 400 548ZM395 120L419 243Q319 242 269 215Q210 180 210 127Q210 103 226 90T275 76Q329 76 395 120Z" />
<glyph unicode="&#xe4;" glyph-name="adieresis" horiz-adv-x="580" d="M604 614H461L483 725H626L604 614ZM351 614H208L230 725H373L351 614ZM400 548Q456 548 495 539T554 512T583 473T592 423Q592 394 580 332L515 0H372L382 53Q286 -18 201 -18Q139 -18 102
15T65 104Q65 123 69 142T84 184T118 230T173 270Q261 316 434 319L441 353Q446 383 446 398Q446 425 429 439T365 454Q289 454 174 405L194 509Q282 548 400 548ZM395 120L419 243Q319 242 269 215Q210 180 210 127Q210 103 226 90T275 76Q329 76 395 120Z" />
<glyph unicode="&#xe5;" glyph-name="aring" horiz-adv-x="580" d="M419 679Q458 679 490 709T522 780Q522 810 503 829T452 849Q413 849 381 819T349 748Q349 718 368 699T419 679ZM609 792Q609 718 546 663T405 608Q343 608 303 644T262 736Q262 810 325 865T466
920Q528 920 568 884T609 792ZM400 548Q456 548 495 539T554 512T583 473T592 423Q592 394 580 332L515 0H372L382 53Q286 -18 201 -18Q139 -18 102 15T65 104Q65 123 69 142T84 184T118 230T173 270Q261 316 434 319L441 353Q446 383 446 398Q446 425 429 439T365
454Q289 454 174 405L194 509Q282 548 400 548ZM395 120L419 243Q319 242 269 215Q210 180 210 127Q210 103 226 90T275 76Q329 76 395 120Z" />
<glyph unicode="&#xe8;" glyph-name="egrave" horiz-adv-x="584" d="M521 614H435L296 772H438L521 614ZM439 553Q531 553 582 515T633 420Q633 365 587 317T457 243Q380 220 243 220Q236 220 229 220Q228 209 228 199Q228 76 355 76Q429 76 559 119L538 12Q449
-18 343 -18Q271 -18 220 -1T140 46T99 111T86 191Q86 226 94 265Q120 404 215 478T439 553ZM261 314Q490 314 490 408Q490 429 474 444T421 459Q403 459 383 454T337 436T287 391T248 314Q255 314 261 314Z" />
<glyph unicode="&#xe9;" glyph-name="eacute" horiz-adv-x="584" d="M637 772L436 614H350L495 772H637ZM439 553Q531 553 582 515T633 420Q633 365 587 317T457 243Q380 220 243 220Q236 220 229 220Q228 209 228 199Q228 76 355 76Q429 76 559 119L538 12Q449
-18 344 -18Q271 -18 220 -1T140 46T99 111T86 191Q86 226 94 265Q120 404 215 478T439 553ZM261 314Q490 314 490 408Q490 429 474 444T421 459Q403 459 383 454T337 436T287 391T248 314Q255 314 261 314Z" />
<glyph unicode="&#xea;" glyph-name="ecircumflex" horiz-adv-x="584" d="M646 614H532L450 688L338 614H224L389 743H531L646 614ZM439 553Q531 553 582 515T633 420Q633 365 587 317T457 243Q380 220 243 220Q236 220 229 220Q228 209 228 199Q228 76 355 76Q429
76 559 119L538 12Q449 -18 343 -18Q271 -18 220 -1T140 46T99 111T86 191Q86 226 94 265Q120 404 215 478T439 553ZM261 314Q490 314 490 408Q490 429 474 444T421 459Q403 459 383 454T337 436T287 391T248 314Q255 314 261 314Z" />
<glyph unicode="&#xeb;" glyph-name="edieresis" horiz-adv-x="584" d="M633 614H490L512 725H655L633 614ZM380 614H237L259 725H402L380 614ZM439 553Q531 553 582 515T633 420Q633 365 587 317T457 243Q380 220 243 220Q236 220 229 220Q228 209 228 199Q228
76 355 76Q429 76 559 119L538 12Q449 -18 343 -18Q271 -18 220 -1T140 46T99 111T86 191Q86 226 94 265Q120 404 215 478T439 553ZM261 314Q490 314 490 408Q490 429 474 444T421 459Q403 459 383 454T337 436T287 391T248 314Q255 314 261 314Z" />
<glyph unicode="&#xec;" glyph-name="igrave" horiz-adv-x="292" d="M351 614H265L126 772H268L351 614ZM217 0H75L178 530H320L217 0Z" />
<glyph unicode="&#xed;" glyph-name="iacute" horiz-adv-x="292" d="M467 772L266 614H180L325 772H467ZM217 0H75L178 530H320L217 0Z" />
<glyph unicode="&#xee;" glyph-name="icircumflex" horiz-adv-x="292" d="M476 614H362L280 688L168 614H54L219 743H361L476 614ZM217 0H75L178 530H320L217 0Z" />
<glyph unicode="&#xef;" glyph-name="idieresis" horiz-adv-x="292" d="M463 614H320L342 725H485L463 614ZM210 614H67L89 725H232L210 614ZM217 0H75L178 530H320L217 0Z" />
<glyph unicode="&#xf0;" glyph-name="eth" horiz-adv-x="625" d="M645 362Q645 315 637 267T604 166T544 74T447 8T310 -18Q265 -18 227 -8T156 23T104 86T85 183Q85 209 89 239T103 304T130 371T171 435T229 488T306 525T405 539Q438 539 462 533Q442 573 413
607L268 558L259 615L365 651Q320 686 264 706L368 759Q435 736 489 693L636 743L646 686L537 649Q645 532 645 362ZM412 463Q370 463 337 443T284 393T251 325T234 256T229 197Q229 136 255 106T328 76Q386 76 430 123T494 265H493Q503 317 503 355Q503 414 480
438T412 463Z" />
<glyph unicode="&#xf2;" glyph-name="ograve" horiz-adv-x="625" d="M517 614H431L292 772H434L517 614ZM233 182Q233 126 261 101T328 76Q353 76 375 84T412 105T439 137T459 172T472 208T480 238T485 260Q485 264 486 265Q496 319 496 348Q496 404 468 429T401
454Q376 454 354 446T317 425T290 393T270 358T257 322T249 292T244 270Q244 266 244 265Q233 211 233 182ZM80 199Q80 262 103 323T168 435T275 517T420 548Q533 548 591 488T649 331Q649 268 626 207T561 95T454 13T309 -18Q196 -18 138 42T80 199Z" />
<glyph unicode="&#xf3;" glyph-name="oacute" horiz-adv-x="625" d="M633 772L432 614H346L491 772H633ZM233 182Q233 126 261 101T328 76Q353 76 375 84T412 105T439 137T459 172T472 208T480 238T485 260Q485 264 486 265Q496 319 496 348Q496 404 468 429T401
454Q376 454 354 446T317 425T290 393T270 358T257 322T249 292T244 270Q244 266 244 265Q233 211 233 182ZM80 199Q80 262 103 323T168 435T275 517T420 548Q533 548 591 488T649 331Q649 268 626 207T561 95T454 13T310 -18Q196 -18 138 42T80 199Z" />
<glyph unicode="&#xf4;" glyph-name="ocircumflex" horiz-adv-x="625" d="M643 614H529L447 688L335 614H221L386 743H528L643 614ZM233 182Q233 126 261 101T328 76Q353 76 375 84T412 105T439 137T459 172T472 208T480 238T485 260Q485 264 486 265Q496 319
496 348Q496 404 468 429T401 454Q376 454 354 446T317 425T290 393T270 358T257 322T249 292T244 270Q244 266 244 265Q233 211 233 182ZM80 199Q80 262 103 323T168 435T275 517T420 548Q533 548 591 488T649 331Q649 268 626 207T561 95T454 13T309 -18Q196
-18 138 42T80 199Z" />
<glyph unicode="&#xf6;" glyph-name="odieresis" horiz-adv-x="625" d="M630 614H487L509 725H652L630 614ZM377 614H234L256 725H399L377 614ZM233 182Q233 126 261 101T328 76Q353 76 375 84T412 105T439 137T459 172T472 208T480 238T485 260Q485 264 486 265Q496
319 496 348Q496 404 468 429T401 454Q376 454 354 446T317 425T290 393T270 358T257 322T249 292T244 270Q244 266 244 265Q233 211 233 182ZM80 199Q80 262 103 323T168 435T275 517T420 548Q533 548 591 488T649 331Q649 268 626 207T561 95T454 13T309 -18Q196
-18 138 42T80 199Z" />
<glyph unicode="&#xf9;" glyph-name="ugrave" horiz-adv-x="623" d="M516 614H430L291 772H433L516 614ZM232 -18Q206 -18 185 -13T144 6T113 43T101 103Q101 135 115 204L178 530H320L252 180Q245 146 245 130Q245 76 304 76Q370 76 433 133L510 530H652L549
0H407L419 60Q328 -18 232 -18Z" />
<glyph unicode="&#xfa;" glyph-name="uacute" horiz-adv-x="623" d="M632 772L431 614H345L490 772H632ZM232 -18Q206 -18 185 -13T144 6T113 43T101 103Q101 135 115 204L178 530H320L252 180Q245 146 245 130Q245 76 304 76Q370 76 433 133L510 530H652L549
0H407L419 60Q328 -18 232 -18Z" />
<glyph unicode="&#xfb;" glyph-name="ucircumflex" horiz-adv-x="623" d="M642 614H528L446 688L334 614H220L385 743H527L642 614ZM232 -18Q206 -18 185 -13T144 6T113 43T101 103Q101 135 115 204L178 530H320L252 180Q245 146 245 130Q245 76 304 76Q370 76
433 133L510 530H652L549 0H407L419 60Q328 -18 232 -18Z" />
<glyph unicode="&#xfc;" glyph-name="udieresis" horiz-adv-x="623" d="M629 614H486L508 725H651L629 614ZM376 614H233L255 725H398L376 614ZM232 -18Q206 -18 185 -13T144 6T113 43T101 103Q101 135 115 204L178 530H320L252 180Q245 146 245 130Q245 76 304
76Q370 76 433 133L510 530H652L549 0H407L419 60Q328 -18 232 -18Z" />
<glyph unicode="&#xfd;" glyph-name="yacute" horiz-adv-x="561" d="M601 772L400 614H314L459 772H601ZM655 530L478 10Q471 -10 468 -20T455 -50T437 -81T414 -109T383 -137T342 -159T290 -177T225 -188T144 -193Q88 -193 43 -184L62 -86Q127 -99 171 -99Q207
-99 235 -92T278 -77T305 -53T320 -29T330 -3L337 15Q304 -9 267 -9Q215 -9 178 33Q161 52 151 81T139 129T134 188L113 530H255L279 184Q284 67 301 67Q340 67 370 112L512 530H655Z" />
<glyph unicode="&#xfe;" glyph-name="thorn" horiz-adv-x="601" d="M635 389Q635 317 607 233T524 86Q477 35 414 9T257 -18Q234 -18 214 -16L179 -193H37L225 770H367L304 449Q387 548 494 548Q520 548 543 541T588 518T622 468T635 389ZM283 76Q325 76 357 92T410
140T444 206T466 290Q477 344 477 378Q477 419 463 436T419 454Q384 454 348 431T289 370L233 82Q259 76 283 76Z" />
<glyph unicode="&#xff;" glyph-name="ydieresis" horiz-adv-x="561" d="M598 614H455L477 725H620L598 614ZM345 614H202L224 725H367L345 614ZM655 530L478 10Q471 -10 468 -20T455 -50T437 -81T414 -109T383 -137T342 -159T290 -177T225 -188T144 -193Q88 -193
43 -184L62 -86Q127 -99 171 -99Q207 -99 235 -92T278 -77T305 -53T320 -29T330 -3L337 15Q304 -9 267 -9Q215 -9 178 33Q161 52 151 81T139 129T134 188L113 530H255L279 184Q284 67 301 67Q340 67 370 112L512 530H655Z" />
</font>
</defs>
</svg>
